<?xml version="1.0" encoding="UTF-8"?>
<svg id="Layer_2" data-name="Layer 2" xmlns="http://www.w3.org/2000/svg" viewBox="0 0 889.83 688.85">
  <defs>
    <style>
      .cls-1 {
        fill: #fff;
      }

      .cls-2 {
        fill: #eb0430;
      }
    </style>
  </defs>
  <g id="Layer_1-2" data-name="Layer 1">
    <g>
      <path d="M714.41,688.85c-28.47-2.29-55.76-9.75-82.85-18.45-40.37-12.97-75.64-34-104.89-64.85-18.95-19.98-34.24-42.36-44.04-68.28-.33-.86-.79-1.68-1.39-2.92-18.74,20.62-42.75,24.63-68.16,21.68-27.13-3.15-43.47-20.56-53.48-46.05-2.01,4.5-3.41,8.19-5.25,11.64-17.6,33.09-44.74,56.09-79.19,68.9-42.47,15.79-86.78,23.92-132.39,22.51-33.23-1.03-64.92-8.12-94.81-23.5-26.29-13.53-40.09-35.34-45.69-63.39s.08-56.22,9.73-83.11c12.14-33.81,30.66-64.08,52.11-92.71,2.84-3.79,5.22-8.92,5.44-13.54,1.37-29.35,3.13-58.74,2.72-88.1-.55-39.06-3.84-78.09-4.23-117.16-.22-22.1,5.75-43.71,13.58-64.42,3.94-10.43,8.92-20.63,14.69-30.16,11.48-18.98,28.37-30.78,50.41-34.82,2.57-.47,5.05-1.4,7.57-2.11h25.52c.41,.35,.79,.95,1.24,1.02,33.01,4.94,59.67,22.3,84.55,43.2,47.14,39.6,77.36,90.34,97.32,147.87,17.28,49.81,26.66,101.3,32.73,153.5,.47,4.03,.88,8.06,1.39,12.83,16.39-11.75,33.99-17.76,53.88-12.98,20.09,4.82,33.14,18.09,42.23,37.68,1.18-3.98,1.96-6.58,2.72-9.19,15.38-52.74,42.44-98.98,78.36-140.16,40.37-46.28,88.04-83.4,142.63-111.43,25.26-12.96,51.94-21.4,80.78-19.15,28.19,2.2,54.04,10.3,72.2,33.95,13.03,16.96,18.54,36.73,19.98,57.82v31.64c-.24,2.31-.53,4.61-.73,6.92-1.98,22.9-11.41,43.66-18.88,64.93-17.17,48.89-40.7,94.75-67.52,138.96-2.09,3.45-2.12,5.87-.25,9.35,4.02,7.47,7.75,15.14,11.1,22.94,15.58,36.18,25.41,73.54,20.45,113.33-1.57,12.58-5.34,24.88-8.15,37.3-10.37,45.91-41.97,64.83-82.22,68.51h-29.24Z"/>
      <path class="cls-2" d="M373.28,487.98c3.88,19.98,10.73,37.7,31.81,48.86,24,12.71,51.28,7.67,70.23-11.29,6.27-6.62,10.26-14.69,10.51-23.91,.25-9.1-8.69-22.9,3.12-28.54l9.24,2.4c-1.65,3.63-3.57,7.17-4.86,10.92-1.14,3.31-2.69,7.05-2.14,10.27,2.23,13.04,5.13,25.96,7.99,38.88,.37,1.69,1.88,3.13,2.86,4.69,.61,1.19,1.26,2.35,1.82,3.57,8.08,17.62,16.03,35.31,29.21,49.94,.58,1.2,.92,2.62,1.78,3.56,35.93,39.21,87.35,64.05,139.14,74,25.85,4.96,53.91,7.03,79.95,2.14,26.56-4.98,42.23-26.73,53.82-49.67,22.58-44.74,11.34-96.43-5.69-140.17-3.42-8.78-6.73-17.59-10.33-26.29-.74-1.78-2.54-3.12-3.86-4.67-1.44,1.36-3.1,2.55-4.3,4.1-5.52,7.15-10.9,14.39-16.34,21.61l-1.65-1.17c.31-.86,.51-1.77,.94-2.56,17.7-33.01,33.89-66.82,51.57-99.84,32.19-60.13,66.7-118.65,56.95-190.23-3.11-22.85-13.4-41.66-33.78-53.89-101.75-49.1-201.85,50.58-262.75,119.87-29.22,33.25-52.9,70.99-69.06,112.3-4.61,11.78-12.38,23.11-8.93,36.97l-9.01,1.52c-1.94-1.81-4.78-3.26-5.66-5.49-4.63-11.7-11.46-21.86-21.08-29.79-10.78-8.87-23.13-13.36-37.37-10.22-15.24,3.44-26.07,13.8-37.47,25.18l-5.61-34.25c-2.44-18.29-4.5-36.65-7.48-54.85-12.87-78.65-46.99-161.46-102.42-219.82-22.66-23.86-49.27-42.02-80.2-53.7-28.21-10.66-52.69-3.76-74.49,15.54-60.28,53.36-31.97,149.31-32.38,217.94-.24,40.73,2.19,81.56-3.32,122.14-1.1,8.12-2.54,16.19-3.82,24.29l-2.38,.09-3.59-31.39c-2.2,2.15-4,3.45-5.2,5.18-6.92,10-13.98,19.91-20.46,30.19-21.63,34.3-43.91,82.44-33.75,123.79,16.04,65.25,89.89,78.74,147.58,76.33,60.24-2.52,131.01-17.86,171.53-66.08,16.04-19.09,24.51-42.82,24.17-67.75-.44-32.69-23.08-59.52-44.69-81.89-13.8-14.29-31.31-23.75-50.51-29.58-.92-.28-1.85-.56-2.75-.91-.68-.27-1.32-.64-2.43-1.2,14.63-1.58,27.87,.13,40.5,6.9,21.97,11.77,38.12,29.19,50.83,50.26,2.5,4.14,5.43,8.03,9.06,13.35l9.05-22.32,5.64,5.01c-2.22,5.76-4.38,11.54-6.69,17.26-4.17,10.29,.94,23.92,2.66,34.34,1.58,9.57,2.72,19.07,4.48,28.11Z"/>
      <g>
        <path class="cls-1" d="M534.44,416.25c-6.26-4.55-12.17-9.73-18.89-13.42-4.64-2.54-10.4-3.02-15.66-4.42l-9.01,1.52c-2.64,1.87-5.22,3.83-7.94,5.59-21.9,14.19-22.51,44.34-2.91,59.21,2.86,2.17,5.52,4.63,8.27,6.96l9.24,2.4c1.63-.43,3.25-1.17,4.89-1.24,17.76-.74,32.49-12.37,35.18-29.99,1.19-7.85-1.3-16.26-2.11-24.42l-1.05-2.2Z"/>
        <path class="cls-1" d="M273.19,193.49c13.41,7.09,26.76,5.44,38.4-3.88,11.5-9.21,16.5-21.46,13.36-36.46-.53-2.51-.06-5.23-.06-7.85l-4.85-8c-2.31-1.22-4.89-2.09-6.88-3.7-11.65-9.43-24.46-12.17-38.23-5.88-13.49,6.17-21.4,17.04-21.95,32.04-.57,15.31,6.89,26.69,20.2,33.73Z"/>
        <path class="cls-1" d="M379.48,409.13c18.71,9.84,40.95,2.52,50.36-16.43,6.68-13.45,4.35-26.04-3.07-38.28-15.24,3.44-26.07,13.8-37.47,25.18l-5.61-34.25c-.95-2.72-2.45-2.69-4.77-1.36-11.8,6.73-18.21,17.03-19.27,30.35-.98,12.31,4.7,22.31,12.64,31.2,2.4,1.19,4.83,2.34,7.2,3.59Z"/>
        <path class="cls-1" d="M613.36,276.34c15.46-2.23,28.69-14.8,31.45-29.89,3-16.4-4.58-31.78-19.69-40.08-1.28-.7-2.33-1.82-3.48-2.74-1.46,1.2-3.06,2.27-4.35,3.63-14.47,15.32-28.9,30.69-43.33,46.04,.33,.7,.63,1.4,.98,2.09,7.54,14.82,22.9,23.19,38.43,20.95Z"/>
        <path class="cls-1" d="M715.49,195.26c17.67-3.01,31.27-19.79,30.11-38.84-.7-11.47-5.23-21.55-16.11-27.46-1.31,.8-2.61,1.63-3.94,2.4l-54.03,31.39c.49,2.06,.89,4.14,1.5,6.16,5.34,17.71,22.54,29.73,42.47,26.34Z"/>
        <path class="cls-1" d="M394.7,477.99c-8.83,.79-16.06,4.96-23.56,8.83-.41,2.39-1.47,4.9-1.07,7.14,.59,3.35,2.4,6.46,3.37,9.76,4.14,14.15,11.8,25.38,26.13,30.62,6.94,2.54,14.22,4.17,21.34,6.21,1.51-.65,3.56-.89,4.45-2.03,7.94-10.15,12.16-24.58,4.25-40.09-6.63-12.99-21.97-21.6-34.91-20.44Z"/>
        <path class="cls-1" d="M74.28,537.35c-18.55,.96-31.82,12.91-34.86,29.58,18.72,10.27,37.7,19.91,58.43,25.57,2.21,.6,4.32,1.57,6.48,2.37,1.2-.95,2.84-1.66,3.52-2.9,5.36-9.8,6.28-20,2.18-30.51-6.35-16.25-20.83-24.88-35.75-24.1Z"/>
        <path class="cls-1" d="M622.91,612.19c-14.31-4.71-30.69,.31-40.26,12.64-1.47,1.9-1.79,4.69-2.64,7.07,2.23,1.07,4.43,2.23,6.7,3.19l56.9,23.94c1.51-1.01,3.88-1.73,4.35-3.11,.97-2.85,1.33-6.06,1.24-9.1-.43-15.58-11.25-29.68-26.3-34.63Z"/>
        <path class="cls-1" d="M828.23,341.44c-14.92-3.4-32.63,3.88-40.16,17.04-8.6,15.02-6.26,33.99,5.93,45.48,1.34,1.26,4.11,1,6.22,1.44l33.81-57.93c-.77-3.13-2.04-5.17-5.8-6.03Z"/>
        <path class="cls-1" d="M277.45,539.08c-14.25,5.41-22.27,16.12-24.36,30.93-.6,4.25,1.32,8.85,2.08,13.28,7.33-2.85,15.1-4.91,21.9-8.7,13.42-7.49,26.31-15.94,39.42-24-.63-1.47-.86-3.43-1.96-4.32-11.05-8.92-23.3-12.43-37.08-7.2Z"/>
        <path class="cls-1" d="M785.2,527.01c5.93,14.59,21.09,25.39,32.65,22.8v-11.97c-1.93-19.59-6.38-38.44-16.43-55.63-15.91,9.63-22.79,28.63-16.22,44.8Z"/>
        <path class="cls-1" d="M83.66,196.19c1.51-.07,3.13,.2,4.5-.27,13.15-4.46,23.83-19.04,24.3-32.98,.63-18.74-10.2-32.62-30.03-38.47,0,2.51-.06,5.01-.02,7.52l1.24,64.2Z"/>
        <path class="cls-1" d="M521.56,544.79c-6.04-3.95-12.3-7.88-20.17-5.94,.61,1.19,1.26,2.35,1.82,3.57,8.08,17.62,16.03,35.31,29.21,49.94,1.03-1.58,2.4-3.02,3.04-4.75,5.73-15.38-.18-33.85-13.9-42.82Z"/>
        <path class="cls-1" d="M826.52,136.43c4.98-1.35,9.42-4.72,14.11-7.17-17.05-8.23-34.44-15.16-53.94-13.88,5.82,14.79,24.77,25.14,39.83,21.05Z"/>
        <path class="cls-1" d="M361.79,234.88c-2.86,9.93,.9,18.02,7.04,25.45l-7.04-25.45Z"/>
        <path class="cls-1" d="M290.12,399.69c-20.17-.04-37.29,16.99-37.3,37.11-.01,19.89,16.93,37.12,36.63,37.23,20.22,.12,37.53-16.84,37.61-36.84,.08-20.19-16.92-37.45-36.93-37.49Z"/>
        <path class="cls-1" d="M77.58,399.72c-20.21-.88-38.94,14.06-38.79,37.21,.16,24.92,20.48,37.17,37.24,37.09,17.35-.07,37.16-12.96,37.04-37.27-.11-23.44-18.04-36.28-35.49-37.04Z"/>
        <path class="cls-1" d="M183.17,202.89c-19.62,.09-36.69,17.16-36.57,36.55,.12,19.6,17.13,36.54,36.63,36.52,19.96-.03,36.65-17.03,36.47-37.15-.17-19.31-17.15-36-36.53-35.91Z"/>
        <path class="cls-1" d="M181.75,137.75c19.78,.08,36.66-16.55,36.79-36.23,.13-19.71-16.6-36.76-36.17-36.88-19.62-.12-36.75,16.75-36.81,36.27-.07,19.77,16.63,36.77,36.2,36.85Z"/>
        <path class="cls-1" d="M289.21,335.77c19.72,.05,36.58-16.7,36.64-36.4,.05-19.75-16.68-36.63-36.35-36.68-19.72-.05-36.58,16.7-36.64,36.4-.05,19.75,16.68,36.63,36.35,36.68Z"/>
        <path class="cls-1" d="M182.98,478.11c-19.62-.15-36.76,16.7-36.83,36.19-.07,19.71,16.62,36.75,36.12,36.9,19.59,.15,36.78-16.73,36.86-36.2,.08-19.65-16.67-36.74-36.16-36.88Z"/>
        <path class="cls-1" d="M182.33,413.58c19.44-.07,36.33-17.24,36.22-36.83-.11-19.51-17.15-36.3-36.78-36.25-19.44,.05-36.33,17.21-36.21,36.79,.12,19.49,17.21,36.35,36.78,36.28Z"/>
        <path class="cls-1" d="M88.33,266.44v65.6c14.73-4.7,25.37-22.85,22.79-38.26-2.37-14.16-13.15-27.32-22.79-27.33Z"/>
        <path class="cls-1" d="M574.04,391.77c1.74,1.72,3.8,3.23,5.18,5.21,14.01,20.11,39.69,22.25,56.84,4.66,11.34-11.63,13.44-29.69,5.09-43.67-8.5-14.24-25.42-21.62-39.99-17.46-16.98,4.85-29.09,20.11-28.7,36.24,.09,3.78,.42,7.56,.64,11.34l.95,3.68Z"/>
        <path class="cls-1" d="M710.47,262c-19.23-.07-36.46,16.86-36.57,35.95-.12,20.06,16.65,37.28,36.36,37.34,19.18,.06,36.47-16.93,36.62-35.99,.15-19.97-16.69-37.23-36.41-37.3Z"/>
        <path class="cls-1" d="M710.71,537.26c-19.51-.17-36.76,16.83-36.8,36.28-.05,19.7,16.65,36.81,36.12,37,19.45,.19,36.79-16.9,36.86-36.33,.07-19.64-16.71-36.78-36.18-36.95Z"/>
        <path class="cls-1" d="M746.89,436.68c-.04-19.52-17.1-36.49-36.67-36.46-19.49,.03-36.36,17.12-36.31,36.78,.05,19.53,17.15,36.58,36.62,36.5,19.44-.08,36.4-17.25,36.36-36.82Z"/>
        <path class="cls-1" d="M817.35,202.3c-19.4,.05-36.42,17.33-36.26,36.82,.16,19.7,17.33,36.29,37.48,36.21,18.85-.07,35.87-17.62,35.71-36.82-.16-19.42-17.34-36.26-36.93-36.21Z"/>
        <path class="cls-1" d="M609.15,550.63c19.41-.05,36.48-17.34,36.35-36.8-.13-19.42-17.29-36.31-36.86-36.27-19.43,.03-36.45,17.25-36.32,36.75,.12,19.47,17.27,36.38,36.83,36.33Z"/>
      </g>
    </g>
  </g>
</svg>