<?xml version="1.0" encoding="UTF-8"?>
<svg id="Layer_2" data-name="Layer 2" xmlns="http://www.w3.org/2000/svg" viewBox="0 0 651.47 718.25">
  <g id="Layer_1-2" data-name="Layer 1">
    <path d="M463.95,441.53c.39,3.83,.97,7.22,1.03,10.63,.15,7.76,.22,15.52-.02,23.27-.15,4.77-.72,9.55-1.51,14.26-1.9,11.29-3.45,22.7-6.24,33.78-4.08,16.22-8.82,32.31-13.9,48.25-2.27,7.11-5.88,13.82-9.18,20.57-4.5,9.21-8.78,18.57-14.06,27.32-5.1,8.44-11.06,16.42-17.18,24.17-4.54,5.75-9.64,11.13-15.02,16.11-9.25,8.56-19.02,16.56-30.43,22.16-8.05,3.95-16.08,8.11-24.5,11.09-7.06,2.49-14.61,3.74-22.05,4.93-9.81,1.57-19.62,1.9-28.96,6.7-7.32,3.76-15.89,5.27-24.06,7.15-7.47,1.72-15.12,2.77-22.72,3.82s-15.74,2.37-23.63,2.51c-5.8,.1-11.62-1.52-17.43-2.35-4.57-.65-9.19-1.05-13.7-1.97-4.56-.93-9.2-1.92-13.48-3.68-8.39-3.44-16.79-7-24.72-11.35-6.18-3.39-11.91-7.74-17.39-12.23-5.88-4.82-11.53-10.02-16.72-15.57-5.22-5.58-9.69-11.85-14.61-17.72-3.2-3.82-6.35-7.75-9.99-11.14-8.86-8.27-15.94-17.88-22.72-27.88-9.22-13.58-16.46-28.11-21.93-43.46-2.43-6.82-3.24-14.24-4.63-21.41-.66-3.38-1.55-6.88-1.27-10.24,.42-5.04,1.73-10.01,2.75-14.99,1.12-5.47,5.76-9.64,5.08-15.95-.89-8.12-1.45-16.37-1.06-24.51,.5-10.52,1.65-21.05,3.33-31.45,1.59-9.86,3.79-19.67,6.5-29.28,3.66-12.95,8.5-25.58,15.36-37.18,5.99-10.14,12.64-19.94,19.65-29.42,5.17-6.99,11.34-13.26,17.16-19.76,1.17-1.31,2.87-2.13,4.14-3.37,.61-.6,.79-1.64,1.16-2.48-.76-.31-1.51-.84-2.29-.9-3.07-.24-6.15-.3-9.22-.49-13.41-.82-26.28-4.3-38.03-10.47-14.61-7.67-27.31-17.85-37-31.72-8.47-12.12-14.68-24.96-18.26-39.31-2.8-11.23-2.42-22.39-1.42-33.7,1.12-12.62,5.4-24.37,10.46-35.72,3.22-7.23,8.49-13.52,12.26-20.55,5.03-9.37,11.93-17.27,19.75-24.05,8.18-7.1,17.32-13.23,26.56-18.93,6.57-4.05,13.84-7.2,21.14-9.74,5.92-2.06,12.4-2.49,18.56-3.94,1.21-.29,2.85-1.82,3.03-2.98,1.71-10.79,2.4-21.79,4.84-32.4,3.15-13.69,7.45-27.33,15.87-38.77,5.16-7.01,11.36-14.02,18.63-18.53,7.95-4.93,17.02-9.69,27.14-8.44,5.43,.67,10.85,2.34,15.99,4.3,10.55,4.02,18.95,11.43,26.93,19.06,5.49,5.25,10.49,11.22,14.74,17.53,6.8,10.09,12.98,20.63,19.07,31.17,3.04,5.27,5.51,10.9,7.89,16.51,3.6,8.49,7.16,17.02,10.24,25.71,2.24,6.33,4.01,12.87,5.37,19.44,2.09,10.17,3.25,20.55,5.54,30.67,3.43,15.2,3.43,30.58,3.3,45.98-.03,3.92,1.24,5.81,5.31,5.42,10.52-1,17.89,4.78,24.67,11.65,2.36,2.4,3.86,2.1,5.49-.67,4.35-7.34,8.84-14.61,13.59-21.69,3.93-5.87,8.19-11.54,12.54-17.11,4.05-5.18,8.32-10.2,12.64-15.15,5.31-6.08,10.6-12.19,16.25-17.96,7.37-7.53,14.84-15,22.7-22,9.19-8.18,18.78-15.91,28.32-23.68,10.6-8.62,22.27-15.73,34.91-20.67,10.96-4.28,22.06-8.81,34.49-7.68,8.84,.8,16.3,6.38,19.26,14.84,4.12,11.78,6.37,23.72,6.09,36.23-.26,11.65,.52,23.35-.23,34.95-.74,11.35-2.81,22.62-4.37,33.92-.37,2.65-1.22,5.24-1.43,7.89-.06,.8,1.23,2.34,2.04,2.44,2.3,.29,4.82,.52,6.98-.14,6.8-2.07,13.38-1.94,20.22,0,4.39,1.25,9.13,1.22,13.64,2.13,8.55,1.73,16.82,4.38,24.27,9.06,7.51,4.71,15.31,9.08,22.23,14.54,5.18,4.08,9.44,9.46,13.64,14.63,4.51,5.56,8.88,11.32,12.57,17.44,3.48,5.77,6.65,11.9,8.78,18.27,3.01,9.01,5.97,18.26,7.07,27.63,1.49,12.69,2.19,25.66,1.36,38.39-.71,10.92-2.9,22.08-6.54,32.39-3.94,11.15-9.3,21.94-16.98,31.37-6.9,8.48-14.39,16.38-23.09,22.86-6.08,4.52-12.92,8.23-19.86,11.3-7,3.09-14.64,4.72-21.85,7.39-12.82,4.76-26.13,3.39-39.27,3.26-15.39-.15-29.87-4.46-43.38-11.83-4.53-2.47-8.88-5.29-13.35-7.88-.56-.33-1.33-.29-2.85-.59Zm-221.71-49.07c-1.52-10.97-2.38-21.6-4.61-31.94-2.01-9.33-5.29-18.42-8.45-27.46-1.43-4.11-3.66-6.87-9.39-7.34-10.87-.9-21.57-3.76-32.36-5.69-6.93-1.24-13.88-2.39-20.85-3.33-2.24-.3-5.12-.63-6.76,.47-3.4,2.29-6.28,5.42-9.16,8.4-5.58,5.77-11.23,11.49-16.43,17.59-4.26,4.99-8.32,10.26-11.74,15.84-5.24,8.56-10.35,17.27-14.62,26.35-4.78,10.18-8.94,20.69-12.62,31.32-2.5,7.22-4.05,14.83-5.42,22.38-1.84,10.14-3.86,20.34-4.44,30.59-.97,17.16-.27,34.32,4.13,50.77-7-2.93-13.84-6.01-20.84-8.66s-14.4-2.36-20.28,1.68c-9.13,6.25-11.42,16.5-11.16,26.9,.17,6.53,1.62,13.15,3.35,19.5,2.24,8.24,4.86,16.45,8.16,24.33,6.63,15.82,16.38,29.85,26.54,43.57,1.55,2.09,3.81,3.66,5.74,5.48,.68-2.43,.73-4.35,.17-6.08-2.58-8.05-4.58-16.19-4.61-24.72,0-.57-.22-1.15-.22-1.72-.04-4.14-.8-8.45,.08-12.39,1.68-7.54,.16-10.53-7.46-11.84-.24-.04-.46-.2-1.38-.63,4.76-2.4,8.73-.36,12.1,1.35,6,3.05,11.49,7.03,13.4,14.15-2.51-2.25-4.55-4.94-6.94-7.28-1.09-1.07-2.87-1.44-4.34-2.12-.73,1.66-2.11,3.33-2.07,4.96,.12,4.83,1.14,9.64,1.21,14.47,.14,10.2,3.35,19.48,6.7,29,5.15,14.64,14.12,26.65,24,38.03,5.43,6.25,12,11.66,18.67,16.64,11.34,8.47,23.98,14.64,37.46,19.11,13.58,4.51,27.7,5.35,41.76,6.32,5.6,.39,11.3-.94,16.95-.91,14.26,.1,27.94-2.9,41.34-7.34,6.22-2.06,12.55-4.27,18.14-7.59,9.12-5.42,17.91-11.45,24.1-20.51,4.64-6.81,8-13.94,8.01-23.56l-17.16,5.96c12.12-13.48,37.83-16.46,46.82-6.02-1.31,.08-2.42,.27-3.51,.2-4.92-.31-9.84-.97-14.76-.98-5.93,0-7.27,1.51-7.98,7.08-.88,6.86-3.6,13.23-7.88,18.41-5.17,6.25-11.42,11.6-17.16,17.39-.64,.64-.95,1.61-1.41,2.43l.47,1.23c4.57-.84,9.21-1.43,13.71-2.59,7.16-1.84,14.38-3.65,21.27-6.25,6.21-2.35,12.19-5.45,17.97-8.75,8.13-4.66,16.68-8.98,23.77-14.97,8.24-6.96,15.25-15.42,22.5-23.5s10.8-18.56,10.87-29.19c.05-8.67-3.67-16.88-11.53-22.19-12.6-8.51-26.5-8.43-40.74-6.18-3.45,.55-6.95,.8-11.04,1.26,.52-1.74,.65-2.43,.92-3.06,2.97-6.93,6.22-13.76,8.88-20.81,2.84-7.54,5.15-15.29,7.67-22.95,3.27-9.97,6.89-19.85,9.64-29.96,2.57-9.46,4.8-19.09,6.09-28.79,1.38-10.42,1.66-21,2.06-31.52,.13-3.44-.93-6.91-1.28-10.38-.68-6.76-.84-13.6-1.97-20.28-1.35-7.99-3.39-15.87-5.36-23.74-.34-1.36-1.54-2.78-2.74-3.6-10.64-7.31-21.29-14.6-32.08-21.68-8.4-5.52-16.96-10.81-25.54-16.06-4.23-2.59-8.51-5.21-13.04-7.15-1.72-.74-4.8-.37-6.3,.76-6.69,5.08-13.28,10.35-19.42,16.07-5.45,5.07-10.42,10.7-15.31,16.33-4.26,4.89-8.12,10.12-12.31,15.38Zm238.15-135.42l1.38-.3c.65,1.47,1.56,2.89,1.92,4.43,1.42,6.23,2.64,12.51,4.04,18.74,.18,.8,1.01,1.46,1.54,2.19,.72-.6,1.74-1.05,2.11-1.82,2.05-4.19,4.44-8.3,5.79-12.72,4.44-14.55,8.7-29.16,12.57-43.88,1.7-6.48,2.25-13.26,3.39-19.9,1.59-9.27,3.6-18.48,4.74-27.8,.83-6.8,.85-13.75,.71-20.62-.31-15.8,1.41-31.68-2.13-47.37-1.31-5.8-3.1-11.32-6.1-16.37-2.78-4.7-7.99-5.31-12.62-5.8-3.7-.4-7.6,.7-11.36,1.43-4.9,.95-9.79,2.01-14.59,3.36-2.27,.64-4.36,2.01-6.48,3.14-5.31,2.84-10.81,5.41-15.83,8.7-7.14,4.68-14.05,9.73-20.82,14.94-7.67,5.91-15.55,11.67-22.48,18.38-10.74,10.4-20.91,21.41-31.04,32.42-6.96,7.57-13.73,15.36-20.06,23.46-6.29,8.05-12.19,16.44-17.75,25.01-5.46,8.42-10.85,16.97-15.2,25.99-3.97,8.23-6.52,17.16-9.68,25.79-1.23,3.36-.21,4.76,3.43,4.24,2.48-.35,4.83-1.67,7.31-1.95,7.21-.8,14.51-2.11,21.68-1.71,11.46,.64,22.98,1.9,34.24,4.07,7.97,1.54,15.57,5.01,23.34,7.62l-.35,1.21c-.7,0-1.54,.25-2.08-.04-10.67-5.74-22.54-6.94-34.14-7.68-16.74-1.06-33.63-.88-49.87,4.54-5.08,1.69-10.72,3-14.76,6.19-7.65,6.03-12.46,14.38-13.85,24.27-.59,4.15-1.07,8.37-1.07,12.55,0,6.98,2.98,11.99,9.72,15.11s12.86,6.88,18.98,10.81c9.54,6.14,18.82,12.68,28.25,19,5.19,3.48,33.11,22.35,42.04,28.04,8.6,5.47,17.3,10.82,26.31,15.57,10.15,5.35,20.53,9.73,32.63,9.51,11.89-.22,19.88-6.35,26.23-14.95,7.51-10.17,12.45-21.72,13.76-34.5,1.09-10.6,2.72-21.22,2.79-31.84,.07-10.22-1.69-20.45-2.41-30.69-.77-10.9-1.25-21.81-1.89-32.72-.08-1.29-.36-2.56-.53-3.84l-1.84-14.22ZM125.44,197.54l-2,.33c-1.57-6.85-3.09-13.72-4.74-20.55-.34-1.39-1.13-2.67-1.71-4.01-1.12,.97-2.68,1.72-3.29,2.94-3.2,6.41-6.7,12.74-9.08,19.46-3.59,10.14-7.19,20.41-9.17,30.93-1.81,9.63-1.52,19.66-2.06,29.52-.16,2.93-.02,5.87-.03,8.81,0,11.9,1.97,23.38,10.04,32.55,3.19,3.62,7.9,7.08,12.47,8.08,9.81,2.14,19.97,2.61,29.99,3.79s19.32,2.35,28.99,3.48c2.76,.32,5.56,.31,8.29,.77,8.7,1.44,17.38,2.97,26.05,4.6,5.29,.99,10.54,2.25,15.81,3.33,2.31,.47,4.65,.78,8.1,1.35-.92-3.78-1.98-6.57-2.2-9.42-.48-6.11-.29-12.28-.81-18.39-.91-10.61,1.29-20.82,4.47-30.7,1.42-4.41,.3-6.69-2.58-9.2-6.21-5.42-12.27-11.02-18.67-16.2-4.38-3.55-9.16-6.64-13.88-9.75-8.97-5.91-18.02-11.68-27.16-17.59,10.77,1.13,19.41,7.07,27.68,12.75,11.01,7.56,20.84,16.82,31.33,25.16,2.47,1.96,4.2,6.07,8.69,3.91,4-9.61,15.3-21.43,22.67-26.98,4.07-3.06,4.48-5.63,1.13-9.87-3.3-4.17-6.68-8.3-9.63-12.71-4.74-7.09-9.14-14.42-13.72-21.62-5.82-9.14-11.9-18.12-17.45-27.41-6.01-10.06-11.75-20.3-17.2-30.67-3.71-7.05-6.4-14.64-10.11-21.69-5.54-10.52-9.53-21.57-12.51-33.01-1.42-5.43-2.63-10.93-3.56-16.46-1.32-7.89-2.33-15.84-3.37-23.78-.11-.83,.47-1.75,.72-2.62,1.96,6.03,3.09,12.02,4.45,17.95,1.22,5.28,2.46,10.58,4.11,15.74,2.25,7.01,4.66,13.98,7.43,20.79,4.11,10.11,8.45,20.13,12.96,30.07,2.16,4.77,4.96,9.25,7.45,13.87,2.76,5.11,5.4,10.28,8.29,15.32,3.84,6.7,19.43,33.77,23.58,40.49,3.69,5.97,8.07,11.51,11.77,17.47s6.78,12.1,10.27,18.09c2.39,4.09,6.06,4.81,10.23,2.26,.97-.59,1.91-1.62,2.93-1.71,4.44-.39,5.07-3.25,4.76-6.82-.75-8.61-3.28-35.05-3.73-39.66-.26-2.61-.09-5.32-.72-7.82-1.78-6.97-3.94-13.83-5.83-20.77-1.76-6.46-3.06-13.07-5.13-19.43s-5.65-11.92-6.96-18.2c-2.52-12.03-8.33-22.52-13.92-33.1-4.37-8.26-9.52-16.13-14.69-23.93-3.87-5.83-7.84-11.74-12.63-16.8-9.31-9.85-19.05-19.91-32.54-23.42-7.2-1.87-15.71-1.74-22.89,.2-6.79,1.83-12.66,6.92-18.2,12.05-11.14,10.32-16.83,23.33-20.88,37.35-1.66,5.75-2.66,11.74-3.46,17.69-1.29,9.59-2.97,19.24-3.04,28.87-.14,20.45,.62,40.91,1.11,61.37,.1,4.06,.55,8.13,1.04,12.16,.84,6.94,1.83,13.87,2.75,20.8Zm149.24,141.16c1.79-.41,4.41-1.42,7.06-1.54,4.25-.18,3.57-2.44,2.61-5.01-.38-1.01-1.14-1.88-1.46-2.9-2.74-8.67-2.32-16.8,1.1-25.62,2.88-7.46,5.97-14.41,12.08-19.28,5.73-4.57,9.64-8.74,10.31-17.02,.62-7.7,5.39-15.04,8.2-22.58,2.14-5.74,6.76-11.23-.44-17.27-4.39-3.68-8.82-6.83-14.32-7.78-13.79-2.37-25.24,3.59-35.07,12.12-10.01,8.7-17.52,19.44-22.69,32.01-4.27,10.38-6.02,21.18-6.43,31.94-.35,9.39,2.02,18.95,5.19,28.01,.76,2.16,2.21,4.38,3.96,5.83,8.36,6.98,18.72,7.79,29.9,9.07Zm-145.18,268.11c-7.47,2.64-12.45,6.87-15.61,13.49s-4.68,13.91-3.22,21.03c1.97,9.6,6.85,18.17,14,24.85,5.93,5.55,12.55,10.52,19.43,14.85,10.3,6.47,21.92,10.14,33.77,12.44,10.5,2.04,21.22,2.43,31.51-1.79,5.99-2.45,10.77-6.22,14.29-11.84,3.85-6.14,3.53-12.77,3.7-19.51,.27-11.03-4.7-19.9-11.85-27.42-9.71-10.22-21.18-17.83-34.75-22.62-10.56-3.73-20.94-6.91-29.87-6.57-8.85,.33-14.98,.84-21.39,3.1Zm138.41-141.74c3.95-26.52,10.86-50.43,22.53-72.76l1.18,.34c-.7,2.3-1.37,4.6-2.09,6.89-.73,2.31-1.41,4.64-2.29,6.89-4.33,11.03-7.78,22.3-9.87,34-1.39,7.78-3.49,15.44-4.78,23.23-.35,2.1,.84,4.58,1.74,6.72,1.49,3.56,3.26,7,5.03,10.43,.38,.74,1.35,1.83,1.84,1.74,1.14-.22,2.56-.81,3.16-1.72,4.78-7.27,9.1-14.87,14.16-21.94s11.17-14.27,16.87-21.32c1.03-1.27,2.42-2.26,3.64-3.38l.88,.76c-1.92,2.66-3.89,5.28-5.74,7.98-6.49,9.48-13.02,18.92-19.35,28.51-3.62,5.48-6.99,11.12-10.22,16.84-1.02,1.8-1.55,4.05-1.71,6.14-.82,10.43-.31,21.1-2.41,31.25-2.85,13.8-7.32,27.31-11.71,40.74-3.36,10.28-8.15,20.03-14.75,28.7-2.3,3.01-4.84,6.26-8.03,8.06-3.67,2.07-4.63,3.87-2.49,7.43,.45,.75,.35,1.85,.64,3.68-3.38-3.24-6.02-5.9-8.79-8.42-8.16-7.44-17.17-13.47-27.93-16.53-6.92-1.97-13.89-3.77-20.75-5.92-11.29-3.55-22.98-2.67-34.53-3.43-2.89-.19-5.79-.03-8.93-.8l10.65-3.07c-2.77-8.68-6.65-16.65-7.65-24.96-1.6-13.28-2.53-26.9-1.45-40.19,1.23-15.13,5.49-29.89,14.06-42.91,2.15-3.27,4.38-6.49,6.36-9.86,.43-.73,.22-2.18-.22-3.02-3.84-7.49-8.44-14.67-11.56-22.45-3.49-8.69-5.74-17.88-8.36-26.9-.61-2.1-.53-4.4-.43-6.66,6.78,18.65,11.45,38.15,24.09,54.17,1-.48,1.6-.84,2.25-1.07,6.08-2.15,6.82-4.2,5.05-10.08-1.55-5.15-2.8-10.51-3.2-15.86-.79-10.76-1.38-21.59-1.15-32.37,.17-7.84,1.8-15.65,2.78-23.47l1.24-.03c.22,.67,.63,1.34,.63,2,.04,17.01-.41,34.04,.27,51.02,.29,7.27,2.67,14.52,4.62,21.63,1.22,4.45,3.24,5.29,10.03,6.05l10.42-50.45,1.55,.15c0,1.69,.19,3.41-.03,5.07-1.21,9.29-2.49,18.56-3.79,27.84-.89,6.31-2.29,12.59-2.62,18.93-.23,4.5,1.25,9.06,1.41,13.61,.26,7.33,.48,14.72-.06,22.02-.41,5.5-2.09,10.89-3.13,16.35-.61,3.22-1.03,6.47-1.58,9.7-1.31,7.74-2.17,15.59-4.07,23.17-2.88,11.47-6.42,22.78-9.85,34.11-.51,1.7-1.95,3.11-3.14,4.94l42.17,12.11c-.38-4.17-1-8.26-1.09-12.37-.17-7.56-.17-15.12,.03-22.68,.12-4.34,.38-8.74,1.27-12.97,2.15-10.27,3.98-20.7,7.3-30.62,3.03-9.05,7.4-17.75,12.02-26.14,2.5-4.54,6.65-8.2,10.25-12.08,1.74-1.88,4.11-3.19,5.86-5.06,.98-1.04,1.94-2.78,1.81-4.09-1.15-10.88-3.12-21.71-3.7-32.62-.42-7.91,.89-15.91,1.43-23.88l1.91,.06v5.36c0,3.39-.16,6.78,.03,10.15,.6,10.55,1.26,21.11,2.09,31.65,.21,2.69,.42,5.9,1.96,7.8s4.67,2.29,8.27,3.85Zm-13.41,5.9c-1.53,.58-3.05,.71-3.87,1.54-7.04,7.15-12.03,15.85-16.26,24.72-3.71,7.78-5.61,16.45-8.13,24.79-4.09,13.56-6.48,27.4-6.39,41.61,.06,9.38-.16,18.78,3.14,27.79,.29,.79,.39,1.88,.96,2.32,4.26,3.23,8.51,6.49,13.02,9.34,1.03,.65,3.56,.32,4.53-.54,3.59-3.18,7.44-6.36,10.04-10.29,4.75-7.2,9.33-14.65,12.77-22.53,3.67-8.39,6.32-17.28,8.71-26.15,2.25-8.37,3.61-16.98,5.24-25.51,.12-.65-.55-2.01-1.02-2.09-.88-.15-2,.18-2.81,.68-6.29,3.85-8.9,3.35-13.32-2.35-5.83-7.52-7.86-16.36-8.23-25.49-.23-5.69,.99-11.44,1.62-17.82Zm-78.18-17.3c-.86-.26-1.29-.52-1.66-.46-.54,.09-1.11,.33-1.53,.66-5.86,4.64-10.76,10.16-13.6,17.08-2.8,6.83-5.46,13.79-7.27,20.92-2.18,8.61-4.3,17.42-4.77,26.23-.52,9.78,1.12,19.66,1.3,29.51,.16,8.8,2.83,16.83,6.47,24.57,3.31,7.05,16.62,7.58,20.77,.98,1.43-2.27,2.82-4.73,3.47-7.3,3.11-12.11,6.27-24.23,8.79-36.47,1.73-8.39,2.27-17.03,3.73-25.49,.59-3.43-1.2-3.76-3.29-3.05-10.56,3.59-13.29-1.75-15.58-10.15-3.34-12.24-2.89-24.85,3.16-37.05Z"/>
  </g>
</svg>