<?xml version="1.0" encoding="UTF-8"?>
<svg id="Layer_2" data-name="Layer 2" xmlns="http://www.w3.org/2000/svg" viewBox="0 0 675.39 659.08">
  <g id="Layer_1-2" data-name="Layer 1">
    <path d="M119.63,267.07c-39.66-5.25-71.62-23.38-94.68-55.86S-5.15,142.44,3.7,103.66C19.02,36.49,83.61-9.19,154.45,1.57s124.52,79.72,111.51,155.5c49.97-13.76,99.62-12.95,149.12,2.58-7.82-42.39,.93-80.49,28.78-113.4,21.24-25.1,48.52-40.1,81.11-44.79,72.23-10.38,136.32,39.03,148.18,106.7,6.78,38.71-1.85,74.1-26.34,104.98s-56.92,46.97-96.12,49.93c40.69,65.35,52.13,135.24,31.76,209.47-15.29,55.7-46.89,100.92-93.1,135.56-92.48,69.32-219.3,67.76-310.82-3.55-24.95-19.44-45.49-42.84-61.76-69.97s-27.13-56.24-32.52-87.39c-5.39-31.16-5.06-62.27,.97-93.31s17.56-59.87,34.4-86.81Z"/>
  </g>
</svg>